<svg width="48" height="32" viewBox="0 0 48 32" fill="none" xmlns="http://www.w3.org/2000/svg">
<rect width="48" height="32" fill="#FFE600"/>
<path d="M23.5934 6.37531C15.6865 6.37531 9.27734 10.4354 9.27734 15.4443C9.27734 20.4532 15.6865 24.9065 23.5934 24.9065C31.5003 24.9065 37.9092 20.4528 37.9092 15.4443C37.9092 10.4357 31.4999 6.37531 23.5934 6.37531Z" fill="#00BCFF"/>
<path d="M18.9344 12.6414C18.9273 12.6552 18.7874 12.7985 18.8781 12.9137C19.0993 13.1938 19.7832 13.3543 20.4747 13.2006C20.8864 13.1092 21.4141 12.6933 21.9254 12.2917C22.4134 11.8528 22.9733 11.4993 23.5811 11.2463C23.9694 11.1055 24.3935 11.0945 24.7887 11.215C25.19 11.3627 25.5624 11.5779 25.8896 11.8512C26.8493 12.5658 30.7086 15.9016 31.3756 16.4781C33.4247 15.6342 35.5462 14.9743 37.7145 14.5062C37.4325 12.7939 36.3925 11.1616 34.797 9.87895C32.573 10.8039 29.6741 11.3577 27.0168 10.0728C26.1138 9.66805 25.1376 9.44815 24.1467 9.42645C22.0384 9.47505 21.1251 10.3785 20.1586 11.3349L18.9344 12.6414Z" fill="white"/>
<path d="M31.2221 16.8409C31.1765 16.8006 26.6843 12.908 25.6663 12.1505C25.3117 11.8381 24.8744 11.6325 24.4058 11.5578C24.2041 11.5419 24.0011 11.5612 23.8061 11.6149C23.205 11.8391 22.649 12.1672 22.1639 12.584C21.5951 13.0329 21.0584 13.4554 20.5602 13.566C19.9582 13.6885 19.3318 13.5953 18.7927 13.303C18.6664 13.2266 18.5647 13.1162 18.4993 12.9847C18.4633 12.884 18.4583 12.775 18.4851 12.6715C18.5119 12.5679 18.5691 12.4747 18.6496 12.4035L19.8894 11.0755C20.0337 10.9333 20.1786 10.7906 20.3276 10.6504C19.9452 10.7073 19.5675 10.7916 19.1974 10.9024C18.7712 11.0426 18.3276 11.1245 17.879 11.1459C17.427 11.1006 16.9777 11.0311 16.5333 10.9376C15.208 10.6297 13.9144 10.201 12.6689 9.65698C10.9063 10.9563 9.75857 12.5516 9.41797 14.3409C9.67121 14.4072 10.3348 14.557 10.5063 14.5947C14.4951 15.4729 15.7372 16.3775 15.9626 16.5665C16.0952 16.4188 16.2598 16.3027 16.4442 16.2271C16.6286 16.1514 16.8279 16.1182 17.0271 16.1298C17.2263 16.1414 17.4203 16.1976 17.5944 16.2942C17.7685 16.3907 17.9183 16.5251 18.0324 16.6872C18.3014 16.4719 18.6372 16.3549 18.9831 16.356C19.1774 16.3578 19.3701 16.3912 19.5535 16.4549C19.7313 16.5112 19.8949 16.6044 20.0333 16.7283C20.1718 16.8522 20.2819 17.0039 20.3564 17.1734C20.5307 17.0952 20.72 17.0553 20.9114 17.0565C21.1402 17.0593 21.3661 17.1087 21.5749 17.2014C21.8653 17.3362 22.1009 17.5646 22.2431 17.8493C22.3854 18.1339 22.4258 18.458 22.3579 18.7684C22.4106 18.7627 22.4637 18.7599 22.5167 18.76C22.936 18.7607 23.3378 18.926 23.6342 19.2196C23.9306 19.5132 24.0973 19.9112 24.0978 20.3264C24.0978 20.5846 24.0328 20.8387 23.9086 21.0658C24.3214 21.3156 24.7983 21.4421 25.282 21.43C25.4026 21.43 25.522 21.4054 25.6325 21.3577C25.7431 21.3099 25.8424 21.2401 25.9244 21.1526C25.9642 21.0971 26.0057 21.0321 25.9671 20.9853L24.8416 19.7476C24.8416 19.7476 24.6564 19.574 24.7176 19.5071C24.7808 19.4382 24.8953 19.537 24.9766 19.6041C25.5492 20.0776 26.2483 20.7926 26.2483 20.7926C26.2606 20.8004 26.3066 20.891 26.5651 20.9369C26.7197 20.9636 26.8782 20.9591 27.031 20.9238C27.1838 20.8885 27.328 20.8231 27.4547 20.7314C27.5265 20.6719 27.592 20.6055 27.6504 20.5331C27.6465 20.5369 27.6421 20.5403 27.6373 20.5432C27.7162 20.4352 27.7559 20.304 27.7501 20.1708C27.7442 20.0377 27.6932 19.9103 27.6051 19.8095L26.2912 18.3484C26.2912 18.3484 26.1032 18.1761 26.1677 18.1075C26.2247 18.0473 26.3454 18.138 26.4279 18.2057C26.8437 18.5502 27.4316 19.1338 27.9949 19.6808C28.1827 19.8066 28.4059 19.8702 28.6325 19.8624C28.8591 19.8546 29.0772 19.7759 29.2558 19.6375C29.402 19.5576 29.523 19.4391 29.6054 19.2951C29.6877 19.1512 29.7281 18.9875 29.7221 18.8221C29.6937 18.6154 29.596 18.4242 29.4446 18.2791L27.6504 16.492C27.6504 16.492 27.4604 16.3316 27.5277 16.2507C27.5827 16.1824 27.7051 16.2806 27.7864 16.3475C28.3578 16.8212 29.9053 18.2266 29.9053 18.2266C30.0876 18.3432 30.3008 18.4032 30.5178 18.3989C30.7348 18.3946 30.9456 18.3263 31.1231 18.2026C31.2372 18.1366 31.3331 18.044 31.4027 17.9329C31.4724 17.8217 31.5137 17.6955 31.5229 17.565C31.5282 17.43 31.504 17.2954 31.4521 17.1705C31.4002 17.0455 31.3218 16.9331 31.2221 16.8409Z" fill="white"/>
<path d="M22.5143 19.1057C22.3035 19.135 22.0953 19.1806 21.8918 19.2423C21.8696 19.2281 21.9088 19.1172 21.9347 19.0534C21.9618 18.9902 22.3282 17.898 21.4347 17.519C21.2348 17.4128 21.0056 17.3733 20.7812 17.4064C20.5567 17.4396 20.3491 17.5435 20.1892 17.7029C20.1518 17.7415 20.1348 17.7383 20.1307 17.6895C20.1253 17.4856 20.0557 17.2884 19.9314 17.1257C19.8072 16.963 19.6347 16.8429 19.438 16.7822C19.1595 16.6974 18.8607 16.7039 18.5862 16.8008C18.3117 16.8977 18.0761 17.0798 17.9146 17.32C17.8859 17.1047 17.7846 16.9052 17.6272 16.7539C17.4699 16.6026 17.2656 16.5082 17.0474 16.486C16.8292 16.4639 16.6098 16.5152 16.4247 16.6317C16.2396 16.7483 16.0995 16.9232 16.0272 17.1283C15.9549 17.3334 15.9545 17.5566 16.0261 17.7619C16.0977 17.9672 16.2372 18.1426 16.4219 18.2598C16.6066 18.377 16.8258 18.429 17.0441 18.4076C17.2624 18.3862 17.467 18.2925 17.6249 18.1417C17.6305 18.1468 17.6326 18.1559 17.6299 18.1742C17.5638 18.4734 17.6087 18.7862 17.7564 19.0553C17.904 19.3244 18.1446 19.5319 18.4341 19.6398C18.5905 19.6995 18.7599 19.7176 18.9256 19.6923C19.0912 19.6669 19.2473 19.5991 19.3782 19.4955C19.4557 19.4414 19.4683 19.4642 19.4574 19.5365C19.4241 19.7605 19.4664 20.2402 20.1455 20.5125C20.3138 20.5941 20.5041 20.6199 20.6884 20.586C20.8726 20.5521 21.0409 20.4603 21.1682 20.3243C21.2557 20.2458 21.2795 20.2586 21.284 20.3804C21.2949 20.6189 21.3764 20.8491 21.5182 21.0422C21.66 21.2354 21.856 21.383 22.0818 21.4669C22.3076 21.5507 22.5533 21.567 22.7884 21.5138C23.0235 21.4607 23.2377 21.3403 23.4043 21.1676C23.5709 20.995 23.6827 20.7777 23.7257 20.5428C23.7688 20.3078 23.7412 20.0655 23.6464 19.8459C23.5517 19.6263 23.3939 19.4391 23.1926 19.3075C22.9914 19.1759 22.7555 19.1057 22.5143 19.1057Z" fill="white"/>
<path d="M23.5905 6C15.533 6 9.00165 10.2438 9.00165 15.4492C9.00165 15.5839 9 15.9553 9 16.0024C9 21.5253 14.7089 25.9977 23.5888 25.9977C32.5223 25.9977 38.1791 21.5263 38.1791 16.0034V15.4492C38.1789 10.2438 31.6473 6 23.5905 6ZM37.5213 14.402C35.4191 14.8626 33.3668 15.5233 31.393 16.3748C30.0088 15.1789 26.8108 12.425 25.9447 11.7815C25.609 11.5018 25.2269 11.2817 24.8155 11.1308C24.6361 11.0748 24.4492 11.0459 24.2612 11.045C24.0219 11.0482 23.7845 11.0878 23.5574 11.1625C22.9491 11.4126 22.3886 11.764 21.9002 12.2015L21.8724 12.2232C21.3699 12.6189 20.8503 13.0282 20.4573 13.1148C20.2853 13.1532 20.1096 13.1727 19.9333 13.1729C19.7565 13.1875 19.5785 13.1673 19.4095 13.1135C19.2406 13.0597 19.0842 12.9733 18.9491 12.8593C18.9246 12.8283 18.9407 12.7782 18.9977 12.7063L19.0051 12.6965L20.2229 11.3974C21.1765 10.4531 22.0774 9.5614 24.1504 9.5143C24.1849 9.5133 24.2197 9.5126 24.2537 9.5126C25.1953 9.5507 26.1208 9.7677 26.9795 10.1519C28.1334 10.7231 29.4039 11.0248 30.6938 11.034C32.1048 11.0099 33.4936 10.6811 34.763 10.0705C36.2421 11.3022 37.2231 12.7857 37.5213 14.402ZM23.5931 6.558C27.8698 6.558 31.6967 7.7719 34.2696 9.6837C33.147 10.1915 31.9308 10.4645 30.6968 10.4857C29.4896 10.476 28.3007 10.1926 27.2213 9.6573C26.288 9.2355 25.28 8.9997 24.2547 8.9633C24.2158 8.9633 24.1764 8.9639 24.1378 8.9647C22.9029 8.9468 21.7025 9.3688 20.7554 10.1538C20.182 10.1836 19.6148 10.2861 19.0678 10.4589C18.6832 10.5859 18.2834 10.6618 17.8787 10.6845C17.7262 10.6845 17.4518 10.6707 17.4272 10.6696C15.9722 10.416 14.5449 10.0249 13.1652 9.5017C15.7329 7.6948 19.453 6.558 23.5931 6.558ZM12.6604 9.8789C14.4398 10.5996 16.5986 11.1561 17.2812 11.1999C17.4717 11.2123 17.6746 11.2336 17.8776 11.2341C18.3342 11.2121 18.7857 11.129 19.2197 10.9871C19.4782 10.9154 19.763 10.8371 20.063 10.7804C19.9827 10.858 19.903 10.9369 19.8227 11.0166L18.5858 12.3415C18.4918 12.4241 18.4253 12.5329 18.3951 12.6538C18.3648 12.7746 18.3722 12.9016 18.4165 13.0181C18.4883 13.1655 18.6011 13.2895 18.7416 13.3755C19.1417 13.5994 19.5951 13.7133 20.0546 13.7053C20.2307 13.7065 20.4063 13.6883 20.5783 13.651C21.097 13.536 21.6409 13.1068 22.2169 12.6531C22.694 12.2452 23.239 11.9222 23.8277 11.6987C23.9742 11.6602 24.1251 11.6397 24.2768 11.6378C24.3156 11.6375 24.3544 11.6398 24.3929 11.6447C24.8459 11.7183 25.2684 11.9179 25.6112 12.2202C26.6267 12.9759 31.1195 16.8681 31.1637 16.9065C31.253 16.9903 31.3231 17.0919 31.3696 17.2047C31.4161 17.3174 31.4378 17.4386 31.4333 17.5603C31.4252 17.677 31.3883 17.7899 31.3256 17.889C31.263 17.9882 31.1766 18.0705 31.0742 18.1288C30.8996 18.2444 30.6949 18.3076 30.4848 18.3107C30.3004 18.3109 30.1197 18.2591 29.9639 18.1613C29.9475 18.1479 28.4082 16.75 27.8412 16.2802C27.7704 16.206 27.677 16.1566 27.5753 16.1396C27.5527 16.1391 27.5305 16.1439 27.51 16.1534C27.4896 16.1629 27.4717 16.177 27.4576 16.1945C27.3685 16.3032 27.4683 16.454 27.5861 16.5528L29.3841 18.3435C29.5182 18.4729 29.6057 18.6424 29.6329 18.8258C29.6376 18.9759 29.6 19.1243 29.5247 19.2546C29.4493 19.3849 29.339 19.492 29.2059 19.564C29.0189 19.6944 28.7972 19.7671 28.5685 19.7727C28.3859 19.7727 28.2073 19.719 28.0555 19.6184L27.7976 19.3669C27.326 18.9076 26.8392 18.4324 26.483 18.1381C26.411 18.0647 26.3169 18.0164 26.2148 18.0003C26.1936 18 26.1725 18.004 26.153 18.0123C26.1335 18.0206 26.1159 18.0328 26.1015 18.0483C26.0609 18.093 26.0326 18.1733 26.1345 18.3066C26.1619 18.3424 26.1921 18.376 26.2251 18.4068L27.5371 19.8663C27.6128 19.9513 27.6571 20.0594 27.6625 20.1726C27.6679 20.2858 27.6342 20.3975 27.5669 20.4892L27.5203 20.5473C27.4819 20.5885 27.4411 20.6275 27.3981 20.664C27.2124 20.7989 26.9871 20.8696 26.7568 20.8652C26.6974 20.8654 26.6381 20.8605 26.5795 20.8503C26.4838 20.8429 26.3931 20.805 26.3209 20.7424L26.3044 20.726C26.2331 20.6526 25.5718 19.9839 25.0247 19.5315C24.9568 19.4601 24.8671 19.4126 24.7693 19.3964C24.747 19.3962 24.7248 19.4007 24.7043 19.4098C24.6838 19.4188 24.6656 19.432 24.6507 19.4486C24.5428 19.5661 24.7053 19.7415 24.7742 19.8059L25.8927 21.0284C25.8832 21.0554 25.869 21.0807 25.8508 21.103C25.8107 21.1579 25.6752 21.2924 25.2693 21.3428C25.22 21.349 25.1703 21.352 25.1206 21.3517C24.7355 21.3272 24.3609 21.2172 24.0247 21.0298C24.1445 20.7779 24.1982 20.5001 24.1807 20.2222C24.1632 19.9444 24.075 19.6753 23.9245 19.4402C23.7739 19.205 23.5659 19.0113 23.3195 18.877C23.0732 18.7428 22.7966 18.6723 22.5154 18.6722C22.4958 18.6722 22.4748 18.6728 22.4552 18.6734C22.5031 18.3587 22.4464 18.0371 22.2936 17.7571C22.1409 17.4771 21.9005 17.2539 21.6084 17.1211C21.3887 17.0235 21.1512 16.9716 20.9104 16.9687C20.7356 16.9679 20.562 16.999 20.3986 17.0606C20.2285 16.7336 19.9346 16.4865 19.5812 16.3733C19.3887 16.3058 19.1863 16.2705 18.982 16.2689C18.6471 16.267 18.3202 16.3707 18.0487 16.565C17.9253 16.4114 17.7706 16.2855 17.5947 16.1953C17.4187 16.1052 17.2253 16.0528 17.0275 16.0418C16.8297 16.0308 16.6317 16.0613 16.4466 16.1313C16.2615 16.2013 16.0935 16.3092 15.9535 16.4481C15.605 16.1843 14.2231 15.315 10.524 14.4834C10.3473 14.4438 9.94623 14.3301 9.69363 14.2567C10.0406 12.6124 11.0956 11.1109 12.6604 9.8789ZM19.5219 19.414L19.4818 19.3786H19.4415C19.3999 19.3816 19.3604 19.3975 19.3283 19.4239C19.1694 19.545 18.9759 19.6132 18.7754 19.6187C18.6698 19.6179 18.5652 19.5978 18.4669 19.5594C18.1955 19.459 17.9699 19.2645 17.8323 19.012C17.6948 18.7595 17.6546 18.4661 17.719 18.1863C17.7234 18.166 17.7222 18.1448 17.7157 18.1251C17.7091 18.1053 17.6972 18.0876 17.6814 18.0739L17.6208 18.0249L17.5644 18.0784C17.3995 18.2369 17.1787 18.3255 16.9489 18.3253C16.7776 18.326 16.6097 18.2777 16.4654 18.1862C16.3211 18.0947 16.2065 17.9638 16.1354 17.8094C16.0643 17.655 16.0397 17.4835 16.0646 17.3156C16.0895 17.1477 16.163 16.9905 16.276 16.8629C16.3889 16.7352 16.5367 16.6426 16.7015 16.5961C16.8664 16.5496 17.0411 16.5512 17.2051 16.6008C17.369 16.6503 17.515 16.7456 17.6255 16.8753C17.736 17.005 17.8065 17.1636 17.8283 17.3319L17.8589 17.5687L17.9902 17.3683C18.1382 17.1408 18.3581 16.9683 18.6155 16.8776C18.8729 16.7869 19.1534 16.7831 19.4132 16.8669C19.5927 16.9227 19.7499 17.0327 19.8629 17.1816C19.9759 17.3305 20.0389 17.5107 20.0432 17.6969C20.0528 17.8117 20.1354 17.8173 20.1514 17.8173C20.1714 17.816 20.1908 17.8105 20.2085 17.8013C20.2262 17.7921 20.2419 17.7794 20.2544 17.7639C20.339 17.6765 20.4409 17.607 20.5536 17.5599C20.6663 17.5128 20.7874 17.489 20.9097 17.4899C21.0792 17.4936 21.2463 17.531 21.4009 17.5998C22.2391 17.9558 21.859 19.0106 21.8545 19.0214C21.7822 19.1962 21.7793 19.2734 21.847 19.318L21.8801 19.3334H21.9048C21.9606 19.3271 22.0153 19.313 22.0671 19.2913C22.21 19.2354 22.3607 19.2024 22.514 19.1935C22.6641 19.1936 22.8133 19.2229 22.952 19.2798C23.0907 19.3368 23.2168 19.4202 23.323 19.5254C23.4291 19.6305 23.5133 19.7554 23.5707 19.8928C23.6282 20.0302 23.6577 20.1774 23.6576 20.3261C23.6576 20.4748 23.6279 20.622 23.5704 20.7594C23.5129 20.8967 23.4287 21.0215 23.3225 21.1266C23.2163 21.2317 23.0903 21.3151 22.9515 21.372C22.8128 21.4288 22.6641 21.4581 22.514 21.458C22.2194 21.4598 21.9357 21.3481 21.7229 21.1465C21.51 20.9449 21.3845 20.6693 21.3731 20.3778C21.3715 20.326 21.366 20.1882 21.2479 20.1882C21.1942 20.1944 21.1448 20.2202 21.1094 20.2606C20.9635 20.4144 20.762 20.5045 20.549 20.5112C20.4218 20.5086 20.2962 20.4816 20.1794 20.4318C19.5283 20.1701 19.5194 19.7274 19.5457 19.5493C19.5521 19.5264 19.5533 19.5024 19.5492 19.479C19.5451 19.4556 19.5358 19.4334 19.5219 19.414ZM23.593 24.3311C15.8456 24.3311 9.56523 20.3523 9.56523 15.4446C9.56644 15.2484 9.57772 15.0524 9.59904 14.8573C9.66089 14.872 10.2762 15.0176 10.4036 15.046C14.1822 15.8773 15.4309 16.7414 15.6419 16.9048C15.5522 17.1179 15.5169 17.3496 15.5393 17.5793C15.5617 17.8091 15.6411 18.0298 15.7704 18.2219C15.8997 18.414 16.0748 18.5715 16.2803 18.6804C16.4858 18.7894 16.7154 18.8464 16.9485 18.8464C17.0356 18.8465 17.1225 18.8386 17.2081 18.8226C17.2639 19.1005 17.3918 19.3592 17.5791 19.5734C17.7663 19.7876 18.0066 19.9499 18.2763 20.0444C18.437 20.1069 18.6079 20.1396 18.7806 20.1408C18.8893 20.1414 18.9976 20.1282 19.1029 20.1014C19.2327 20.3718 19.4354 20.6015 19.6886 20.7652C19.9418 20.9289 20.2357 21.0201 20.538 21.0289C20.6855 21.0289 20.8318 21.003 20.9701 20.9525C21.0749 21.2064 21.242 21.4305 21.4562 21.6044C21.6704 21.7783 21.925 21.8966 22.197 21.9485C22.4689 22.0005 22.7496 21.9845 23.0138 21.902C23.278 21.8195 23.5172 21.6731 23.7099 21.4761C24.1408 21.7247 24.6255 21.868 25.1236 21.8941C25.1951 21.8939 25.2666 21.8894 25.3375 21.8807C25.5214 21.8751 25.702 21.8309 25.8673 21.7508C26.0325 21.6707 26.1787 21.5567 26.2959 21.4163C26.3181 21.3861 26.3378 21.3543 26.355 21.3212C26.5019 21.3655 26.6544 21.3891 26.8078 21.3913C27.1397 21.3847 27.4603 21.2712 27.7211 21.0679C27.9965 20.8889 28.1899 20.6101 28.26 20.2914C28.2606 20.2879 28.261 20.2843 28.2612 20.2808C28.3619 20.301 28.4644 20.3112 28.5671 20.3112C28.9024 20.3071 29.2289 20.2046 29.5054 20.0166C29.7156 19.8958 29.8892 19.7212 30.0077 19.511C30.1262 19.3008 30.1852 19.0629 30.1786 18.8223C30.2805 18.8433 30.3844 18.854 30.4886 18.8542C30.8015 18.8508 31.1066 18.7578 31.3673 18.5863C31.5405 18.4815 31.6862 18.3376 31.7925 18.1664C31.8988 17.9952 31.9627 17.8016 31.979 17.6012C31.9998 17.3224 31.932 17.0442 31.785 16.8056C33.6698 16.0437 35.6159 15.4402 37.6029 15.0013C37.6143 15.1483 37.6205 15.2961 37.6205 15.4448C37.6205 20.3523 31.3403 24.3311 23.593 24.3311Z" fill="#0A0080"/>
</svg>
